# xmcd
#
# Track frame offsets:
#  150
#  17988
#  35632
#  49002
#  65222
#  82896
#  85627
#  104062
#  122442
#  135262
#  158538
#  176661
#  179338
#  197738
#  216758
#  241565
#  248723
#  282942
#  285384
#  307030
#
# Disc length: 4334 seconds
#
# Revision: 1
# Processed by: cddbd v1.5.1PL0 Copyright (c) Steve Scherf et al.
# Submitted via: Collectorz.com Music Collector 6.9
#
DISCID=0f10ec14
DTITLE=Guy Clark and Joe Ely and John Hiatt and Lyle Lovett - Fox Theater, Redwood City - 15 February 2003 - Disc 1
DYEAR=2003
DGENRE=
TTITLE0=intro
TTITLE1=Guy Clark - the cape
TTITLE2=Joe Ely - i'm on the run again
TTITLE3=John Hiatt - tennessee plates
TTITLE4=lyle lovett - la county
TTITLE5=Guy Clark - intro to sis draper
TTITLE6=Guy Clark - sis draper
TTITLE7=Joe Ely - ranches and rivers
TTITLE8=John Hiatt - intro to well hell vergie
TTITLE9=John Hiatt - well hell vergie
TTITLE10=lyle lovett - in my own mind
TTITLE11=intro to soldier's joy 1864
TTITLE12=Guy Clark - soldier's joy 1864
TTITLE13=Joe Ely - twisty river bridge
TTITLE14=John Hiatt - perfectly good guitar
TTITLE15=lyle lovett - intro to her first mistake
TTITLE16=lyle lovett - her first mistake
TTITLE17=Guy Clark - intro to magnolia wind
TTITLE18=Guy Clark - magnolia wind
TTITLE19=Joe Ely - all just to get to you
EXTD=
EXTT0=
EXTT1=
EXTT2=
EXTT3=
EXTT4=
EXTT5=
EXTT6=
EXTT7=
EXTT8=
EXTT9=
EXTT10=
EXTT11=
EXTT12=
EXTT13=
EXTT14=
EXTT15=
EXTT16=
EXTT17=
EXTT18=
EXTT19=
PLAYORDER=
